<?xml version="1.0" encoding="utf-8"?>
<!-- Generator: Adobe Illustrator 17.1.0, SVG Export Plug-In . SVG Version: 6.00 Build 0)  -->
<!DOCTYPE svg PUBLIC "-//W3C//DTD SVG 1.1//EN" "http://www.w3.org/Graphics/SVG/1.1/DTD/svg11.dtd">
<svg version="1.1" id="Layer_1" xmlns="http://www.w3.org/2000/svg" xmlns:xlink="http://www.w3.org/1999/xlink" x="0px" y="0px"
	 viewBox="0 0 150 150" enable-background="new 0 0 150 150" xml:space="preserve">
<g>
	<polygon fill="#66EDA3" points="72.878,0.895 72.899,0.907 72.919,0.895 	"/>
	<g>
		<polygon fill="#66EDA3" points="91.965,67.976 102.627,42.034 78.155,45.161 		"/>
		<polygon fill="#66EDA3" points="87.444,70.652 73.458,47.545 58.376,70.652 		"/>
		<polygon fill="#66EDA3" points="68.231,45.619 45.04,42.929 54.841,67.858 		"/>
		<polygon fill="#66EDA3" points="70.981,24.67 48.443,38.442 70.939,41.435 		"/>
		<polygon fill="#66EDA3" points="99.535,37.63 75.778,24.432 75.82,40.985 		"/>
		<polygon fill="#66EDA3" points="72.919,118.213 72.899,118.203 72.878,118.213 		"/>
		<path fill="#66EDA3" d="M125.981,30.654L72.899,0.907L19.771,30.654v61.233l53.128,26.316l53.082-26.316V30.654z M110.131,80.563
			c-0.122,0.687-0.545,1.291-1.186,1.603L74.386,98.969c-0.377,0.281-0.835,0.444-1.314,0.444c-0.013,0-0.027,0-0.04,0
			c-0.275-0.005-0.537-0.074-0.785-0.175c-0.192-0.038-0.381-0.094-0.563-0.185L38.078,82.206c-0.304-0.152-0.546-0.381-0.746-0.64
			c-0.82-0.378-1.359-1.233-1.277-2.184l3.393-39.255c0.002-0.024,0.01-0.046,0.013-0.069c0.006-0.052,0.019-0.101,0.029-0.152
			c0.023-0.123,0.055-0.241,0.098-0.355c0.019-0.051,0.039-0.101,0.062-0.151c0.056-0.121,0.122-0.234,0.198-0.341
			c0.019-0.028,0.029-0.06,0.05-0.086c0.006-0.008,0.015-0.013,0.021-0.021c0.028-0.035,0.061-0.064,0.091-0.097
			c0.18-0.373,0.455-0.702,0.825-0.928l31.212-19.074c0.285-0.173,0.601-0.26,0.921-0.294c0.553-0.156,1.153-0.091,1.668,0.195
			l32.782,18.211c0.312,0.173,0.546,0.427,0.736,0.71c0.028,0.036,0.051,0.075,0.077,0.114c0.043,0.073,0.093,0.14,0.127,0.218
			c0.142,0.28,0.232,0.591,0.247,0.925l1.772,40.544C110.392,79.868,110.297,80.236,110.131,80.563z"/>
		<polygon fill="#66EDA3" points="86.109,84.332 80.982,90.86 102.939,80.184 93.173,75.436 		"/>
		<polygon fill="#66EDA3" points="95.262,71.551 105.839,76.693 104.62,48.786 		"/>
		<polygon fill="#66EDA3" points="43.985,80.236 65.148,90.845 53.451,75.491 		"/>
		<polygon fill="#66EDA3" points="43.032,49.87 40.69,76.956 51.542,71.517 		"/>
		<polygon fill="#66EDA3" points="87.674,75.203 59.605,75.203 73.138,93.581 82.659,81.588 		"/>
	</g>
</g>
<g>
	<path fill="#66EDA3" d="M8.371,135.58c2.584,0,4.503,1.33,4.503,3.933v0.209c0,1.311-0.532,2.128-1.463,2.602
		c1.197,0.4,2.052,1.388,2.052,3.041v0.399c0,2.755-1.995,4.028-4.826,4.028H2.5V135.58H8.371z M5.426,141.261h2.622
		c1.064,0,1.843-0.362,1.843-1.369v-0.247c0-1.006-0.779-1.463-1.881-1.463H5.426V141.261z M5.426,147.188h2.85
		c1.273,0,2.185-0.531,2.185-1.52v-0.361c0-1.007-0.855-1.52-2.128-1.52H5.426V147.188z"/>
	<path fill="#66EDA3" d="M25.162,149.791l-1.216-3.002h-5.89l-1.216,3.002h-3.173l5.795-14.212h3.078l5.795,14.212H25.162z
		 M22.939,144.243l-1.938-4.826l-1.938,4.826H22.939z"/>
	<path fill="#66EDA3" d="M40.831,140.994h-3.002c-0.094-1.71-1.083-3.021-3.04-3.021c-2.223,0-3.458,1.596-3.458,4.199v1.046
		c0,2.66,1.178,4.18,3.458,4.18c1.995,0,2.926-1.236,3.021-2.946h3.021c-0.171,3.306-2.28,5.548-6.042,5.548
		c-3.952,0-6.441-2.527-6.441-6.726v-1.139c0-4.162,2.489-6.764,6.441-6.764C38.551,135.371,40.698,137.708,40.831,140.994z"/>
	<path fill="#66EDA3" d="M54.733,149.791h-3.382l-3.838-6.118l-1.9,2.262v3.857h-2.945V135.58h2.945v5.947l4.845-5.947h3.781
		l-4.788,5.718L54.733,149.791z"/>
	<path fill="#66EDA3" d="M66.905,138.163v11.628h-2.926v-11.628H59.21v-2.584h12.445v2.584H66.905z"/>
	<path fill="#66EDA3" d="M84.95,142.115v1.178c0,4.257-2.527,6.707-6.479,6.707c-3.971,0-6.479-2.451-6.479-6.707v-1.178
		c0-4.199,2.508-6.744,6.479-6.744C82.423,135.371,84.95,137.916,84.95,142.115z M74.975,142.153v1.083
		c0,2.699,1.236,4.162,3.496,4.162s3.478-1.463,3.478-4.162v-1.083c0-2.66-1.273-4.18-3.478-4.18
		C76.248,137.973,74.975,139.493,74.975,142.153z"/>
	<path fill="#66EDA3" d="M100.92,149.791v-5.985h-5.757v5.985h-2.946V135.58h2.946v5.623h5.757v-5.623h2.926v14.212H100.92z"/>
	<path fill="#66EDA3" d="M118.282,142.115v1.178c0,4.257-2.527,6.707-6.479,6.707c-3.971,0-6.479-2.451-6.479-6.707v-1.178
		c0-4.199,2.507-6.744,6.479-6.744C115.755,135.371,118.282,137.916,118.282,142.115z M108.307,142.153v1.083
		c0,2.699,1.236,4.162,3.496,4.162s3.476-1.463,3.476-4.162v-1.083c0-2.66-1.273-4.18-3.476-4.18
		C109.58,137.973,108.307,139.493,108.307,142.153z"/>
	<path fill="#66EDA3" d="M133.133,149.791v-8.056l-3.99,8.056h-2.09l-3.99-8.056v8.056h-2.946V135.58h2.964l5.016,9.993l4.997-9.993
		h2.964v14.212H133.133z"/>
	<path fill="#66EDA3" d="M141.088,138.182v3.041h5.605v2.565h-5.605v3.4h6.441v2.604h-9.386V135.58h9.368v2.602H141.088z"/>
</g>
</svg>
