<?xml version="1.0" encoding="utf-8"?>
<!-- Generator: Adobe Illustrator 17.1.0, SVG Export Plug-In . SVG Version: 6.00 Build 0)  -->
<!DOCTYPE svg PUBLIC "-//W3C//DTD SVG 1.1//EN" "http://www.w3.org/Graphics/SVG/1.1/DTD/svg11.dtd">
<svg version="1.1" id="Layer_1" xmlns="http://www.w3.org/2000/svg" xmlns:xlink="http://www.w3.org/1999/xlink" x="0px" y="0px"
	 viewBox="0 0 200 200.16" enable-background="new 0 0 200 200.16" xml:space="preserve">
<g>
	<polygon fill="#763F95" points="132.423,113.939 150.534,69.875 108.967,75.187 	"/>
	<polygon fill="#763F95" points="124.745,118.485 100.989,79.236 75.372,118.485 	"/>
	<polygon fill="#763F95" points="92.111,75.966 52.72,71.396 69.367,113.739 	"/>
	<polygon fill="#763F95" points="96.781,40.382 58.501,63.775 96.711,68.858 	"/>
	<polygon fill="#763F95" points="145.282,62.394 104.93,39.977 105.001,68.095 	"/>
	<polygon fill="#763F95" points="100.074,199.269 100.039,199.252 100.004,199.269 	"/>
	<polygon fill="#763F95" points="100.004,0 100.039,0.02 100.074,0 	"/>
	<path fill="#763F95" d="M190.201,50.546L100.039,0.02L9.799,50.546v104.006l90.24,44.699l90.162-44.699V50.546z M163.279,135.319
		c-0.207,1.168-0.926,2.193-2.015,2.722l-58.699,28.541c-0.641,0.478-1.418,0.753-2.233,0.753c-0.022,0-0.045,0-0.068,0
		c-0.467-0.009-0.913-0.126-1.334-0.298c-0.326-0.064-0.647-0.16-0.956-0.314l-57.08-28.615c-0.516-0.258-0.928-0.646-1.267-1.088
		c-1.392-0.642-2.309-2.093-2.169-3.709l5.764-66.677c0.003-0.041,0.018-0.077,0.022-0.117c0.01-0.088,0.032-0.171,0.049-0.258
		c0.04-0.208,0.093-0.409,0.166-0.603c0.032-0.087,0.066-0.171,0.105-0.256c0.095-0.205,0.208-0.397,0.336-0.579
		c0.033-0.047,0.05-0.101,0.085-0.147c0.01-0.014,0.025-0.022,0.036-0.036c0.047-0.059,0.103-0.109,0.154-0.165
		c0.306-0.633,0.772-1.192,1.401-1.576L98.59,30.501c0.484-0.294,1.021-0.442,1.564-0.499c0.939-0.264,1.959-0.155,2.833,0.331
		l55.681,30.933c0.529,0.294,0.928,0.726,1.25,1.206c0.047,0.062,0.087,0.128,0.13,0.193c0.073,0.124,0.157,0.238,0.215,0.37
		c0.241,0.475,0.394,1.004,0.42,1.571l3.01,68.866C163.724,134.138,163.562,134.764,163.279,135.319z"/>
	<polygon fill="#763F95" points="122.478,141.721 113.769,152.808 151.063,134.675 134.475,126.61 	"/>
	<polygon fill="#763F95" points="138.025,120.011 155.991,128.745 153.919,81.344 	"/>
	<polygon fill="#763F95" points="50.927,134.763 86.875,152.784 67.007,126.705 	"/>
	<polygon fill="#763F95" points="49.309,83.185 45.332,129.192 63.764,119.953 	"/>
	<polygon fill="#763F95" points="125.136,126.215 77.459,126.215 100.445,157.43 116.618,137.059 	"/>
</g>
</svg>
