<?xml version="1.0" encoding="utf-8"?>
<!-- Generator: Adobe Illustrator 17.1.0, SVG Export Plug-In . SVG Version: 6.00 Build 0)  -->
<!DOCTYPE svg PUBLIC "-//W3C//DTD SVG 1.1//EN" "http://www.w3.org/Graphics/SVG/1.1/DTD/svg11.dtd">
<svg version="1.1" id="Layer_1" xmlns="http://www.w3.org/2000/svg" xmlns:xlink="http://www.w3.org/1999/xlink" x="0px" y="0px"
	 viewBox="0 0 360 360" enable-background="new 0 0 360 360" xml:space="preserve">
<g>
	<polygon fill="#F24E52" points="237.304,206.133 270.016,126.546 194.937,136.14 	"/>
	<polygon fill="#F24E52" points="223.436,214 180.527,143.108 134.26,214 	"/>
	<polygon fill="#F24E52" points="164.493,137.546 93.346,129.294 123.414,205.772 	"/>
	<polygon fill="#F24E52" points="172.928,73.276 103.787,115.529 172.801,124.708 	"/>
	<polygon fill="#F24E52" points="260.528,113.035 187.646,72.546 187.774,123.33 	"/>
	<polygon fill="#F24E52" points="178.749,0.339 178.812,0.375 178.875,0.339 	"/>
	<path fill="#F24E52" d="M342,91.635L179.07,0.375L16,91.635v187.854l163.07,80.734L342,279.489V91.635z M293.035,244.75
		c-0.373,2.109-1.673,3.96-3.639,4.917l-106.021,51.761c-1.157,0.863-2.561,1.572-4.033,1.572c-0.04,0-0.081,0-0.123,0
		c-0.843,0-1.648-0.438-2.41-0.749c-0.588-0.116-1.169-0.394-1.726-0.673L71.986,249.843c-0.932-0.466-1.677-1.194-2.288-1.991
		c-2.515-1.16-4.17-3.794-3.918-6.713l10.41-120.437c0.006-0.073,0.032-0.143,0.04-0.215c0.019-0.158,0.058-0.311,0.088-0.467
		c0.072-0.376,0.168-0.74,0.299-1.09c0.059-0.157,0.119-0.31,0.189-0.463c0.171-0.37,0.375-0.717,0.607-1.046
		c0.059-0.085,0.09-0.183,0.154-0.265c0.019-0.025,0.046-0.041,0.065-0.065c0.085-0.107,0.187-0.197,0.278-0.299
		c0.552-1.144,1.395-2.153,2.53-2.846l95.753-58.516c0.874-0.531,1.843-0.797,2.825-0.901c1.695-0.477,3.538-0.28,5.117,0.597
		l100.57,55.87c0.956,0.531,1.676,1.311,2.259,2.177c0.084,0.112,0.158,0.231,0.236,0.348c0.131,0.224,0.284,0.43,0.388,0.668
		c0.435,0.858,0.712,1.813,0.758,2.838l5.437,124.384C293.838,242.617,293.545,243.746,293.035,244.75z"/>
	<polygon fill="#F24E52" points="219.341,256.312 203.61,276.338 270.971,243.587 241.01,229.02 	"/>
	<polygon fill="#F24E52" points="247.421,217.1 279.87,232.876 276.128,147.26 	"/>
	<polygon fill="#F24E52" points="90.108,243.745 155.036,276.294 119.15,229.19 	"/>
	<polygon fill="#F24E52" points="87.184,150.586 80.001,233.683 113.292,216.996 	"/>
	<polygon fill="#F24E52" points="224.141,229 138.028,229 179.545,285.033 208.756,248.413 	"/>
</g>
</svg>
